<svg width="17" height="16" viewBox="0 0 17 16" fill="none" xmlns="http://www.w3.org/2000/svg">
<path fill-rule="evenodd" clip-rule="evenodd" d="M3.93103 16C6.10209 16 7.86207 14.3099 7.86207 12.2251C7.86207 10.1404 6.10209 8.45032 3.93103 8.45032C1.75998 8.45032 0 10.1404 0 12.2251C0 14.3099 1.75998 16 3.93103 16ZM3.93103 9.8013C4.23574 9.8013 4.48276 10.0483 4.48276 10.353V11.4569H5.6771C5.9697 11.4569 6.2069 11.6941 6.2069 11.9867C6.2069 12.2793 5.9697 12.5165 5.6771 12.5165H4.48276V13.6204C4.48276 13.9251 4.23574 14.1722 3.93103 14.1722C3.62632 14.1722 3.37931 13.9251 3.37931 13.6204V12.5165H2.18497C1.89237 12.5165 1.65517 12.2793 1.65517 11.9867C1.65517 11.6941 1.89237 11.4569 2.18497 11.4569H3.37931V10.353C3.37931 10.0483 3.62632 9.8013 3.93103 9.8013Z" fill="white"/>
<path d="M9.24137 11.9194H8.37931V13.6435H9.24137V11.9194ZM6.68479 8.16323C6.29217 8.43253 6.1922 8.96913 6.4615 9.36175C6.7308 9.75438 7.2674 9.85435 7.66002 9.58505L6.68479 8.16323ZM15.9002 10.9905L15.2121 11.5099L15.9002 10.9905ZM9.24137 13.6435H15.4828V11.9194H9.24137V13.6435ZM16.8621 12.2642V11.2928H15.1379V12.2642H16.8621ZM16.5883 10.4712C15.1906 8.61941 13.2794 7.66144 11.4586 7.35058C9.66708 7.04473 7.8676 7.35194 6.68479 8.16323L7.66002 9.58505C8.38265 9.0894 9.69726 8.79897 11.1684 9.05012C12.6102 9.29626 14.1102 10.05 15.2121 11.5099L16.5883 10.4712ZM16.8621 11.2928C16.8621 11.0048 16.7713 10.7137 16.5883 10.4712L15.2121 11.5099C15.1599 11.4407 15.1379 11.3636 15.1379 11.2928H16.8621ZM15.4828 13.6435C16.2445 13.6435 16.8621 13.0259 16.8621 12.2642H15.1379C15.1379 12.0737 15.2923 11.9194 15.4828 11.9194V13.6435Z" fill="white"/>
<path fill-rule="evenodd" clip-rule="evenodd" d="M10.2069 7.01986C12.0351 7.01986 13.5172 5.44841 13.5172 3.50993C13.5172 1.57145 12.0351 0 10.2069 0C8.37864 0 6.89655 1.57145 6.89655 3.50993C6.89655 5.44841 8.37864 7.01986 10.2069 7.01986ZM10.2069 5.5629C11.2734 5.5629 12.1379 4.6141 12.1379 3.44369C12.1379 2.27329 11.2734 1.32449 10.2069 1.32449C9.14041 1.32449 8.27585 2.27329 8.27585 3.44369C8.27585 4.6141 9.14041 5.5629 10.2069 5.5629Z" fill="white"/>
</svg>
