<svg width="15" height="16" viewBox="0 0 15 16" fill="none" xmlns="http://www.w3.org/2000/svg">
<rect x="0.672896" y="4.81084" width="13.2749" height="3.75766" rx="0.807475" stroke="white" stroke-width="1.34579"/>
<path d="M1.77635 8.53497H12.9823V13.7122C12.9823 14.6041 12.2592 15.3271 11.3673 15.3271H3.3913C2.49939 15.3271 1.77635 14.6041 1.77635 13.7122V8.53497Z" stroke="white" stroke-width="1.34579"/>
<rect x="6.48276" y="4.13794" width="1.7931" height="11.8621" fill="white"/>
<path fill-rule="evenodd" clip-rule="evenodd" d="M9.5982 0C8.33465 0 7.31035 1.0243 7.31035 2.28785V4.13793H11.0613C11.6559 4.13793 12.1379 3.65591 12.1379 3.0613V2.28785C12.1379 1.0243 11.1136 0 9.85009 0H9.5982ZM9.6229 1.10344C8.65042 1.10344 7.86207 1.89179 7.86207 2.86426V4.13793H9.79311C10.6311 4.13793 11.3104 3.45863 11.3104 2.62069C11.3104 1.78274 10.6311 1.10344 9.79311 1.10344H9.6229Z" fill="white"/>
<path fill-rule="evenodd" clip-rule="evenodd" d="M5.0225 0C6.28604 0 7.31035 1.0243 7.31035 2.28785V4.13793H3.5594C2.96479 4.13793 2.48276 3.65591 2.48276 3.0613V2.28785C2.48276 1.0243 3.50707 0 4.77061 0H5.0225ZM4.9978 1.10344C5.97028 1.10344 6.75862 1.89179 6.75862 2.86426V4.13793H4.82759C3.98964 4.13793 3.31035 3.45863 3.31035 2.62069C3.31035 1.78274 3.98964 1.10344 4.82759 1.10344H4.9978Z" fill="white"/>
</svg>
