<svg width="16" height="16" viewBox="0 0 16 16" fill="none" xmlns="http://www.w3.org/2000/svg">
<path d="M15 6.33333H13.76C13.6345 5.90785 13.4647 5.4967 13.2533 5.10667L14.1267 4.22667C14.2208 4.1348 14.2953 4.02482 14.3457 3.90337C14.3961 3.78191 14.4214 3.6515 14.42 3.52C14.421 3.38856 14.3955 3.25826 14.3451 3.13686C14.2948 3.01545 14.2205 2.90543 14.1267 2.81333L13.1867 1.87333C13.0943 1.77981 12.9842 1.70555 12.8629 1.65487C12.7416 1.60419 12.6115 1.57809 12.48 1.57809C12.3485 1.57809 12.2184 1.60419 12.0971 1.65487C11.9758 1.70555 11.8657 1.77981 11.7733 1.87333L10.8933 2.75333C10.5047 2.5373 10.0933 2.36513 9.66667 2.24V1C9.66667 0.734784 9.56131 0.48043 9.37377 0.292893C9.18624 0.105357 8.93188 0 8.66667 0L7.33333 0C7.06812 0 6.81376 0.105357 6.62623 0.292893C6.43869 0.48043 6.33333 0.734784 6.33333 1V2.24C5.90669 2.36513 5.49527 2.5373 5.10667 2.75333L4.22667 1.87333C4.13427 1.77981 4.02424 1.70555 3.90293 1.65487C3.78163 1.60419 3.65147 1.57809 3.52 1.57809C3.38853 1.57809 3.25837 1.60419 3.13707 1.65487C3.01576 1.70555 2.90573 1.77981 2.81333 1.87333L1.87333 2.81333C1.77955 2.90543 1.70525 3.01545 1.65485 3.13686C1.60446 3.25826 1.579 3.38856 1.58 3.52C1.57784 3.65161 1.60276 3.78225 1.65322 3.90382C1.70368 4.02539 1.77861 4.13528 1.87333 4.22667L2.74667 5.10667C2.53533 5.4967 2.36551 5.90785 2.24 6.33333H1C0.734784 6.33333 0.48043 6.43869 0.292893 6.62623C0.105357 6.81376 0 7.06812 0 7.33333L0 8.66667C0 8.93188 0.105357 9.18624 0.292893 9.37377C0.48043 9.56131 0.734784 9.66667 1 9.66667H2.24C2.36432 10.0926 2.53419 10.5038 2.74667 10.8933L1.87333 11.7733C1.68607 11.9608 1.58088 12.215 1.58088 12.48C1.58088 12.745 1.68607 12.9992 1.87333 13.1867L2.81333 14.1267C3.00331 14.3092 3.25655 14.4111 3.52 14.4111C3.78345 14.4111 4.03669 14.3092 4.22667 14.1267L5.10667 13.2533C5.49616 13.4658 5.90743 13.6357 6.33333 13.76V15C6.33333 15.2652 6.43869 15.5196 6.62623 15.7071C6.81376 15.8946 7.06812 16 7.33333 16H8.66667C8.93188 16 9.18624 15.8946 9.37377 15.7071C9.56131 15.5196 9.66667 15.2652 9.66667 15V13.76C10.0926 13.6357 10.5038 13.4658 10.8933 13.2533L11.7733 14.1267C11.8657 14.2202 11.9758 14.2944 12.0971 14.3451C12.2184 14.3958 12.3485 14.4219 12.48 14.4219C12.6115 14.4219 12.7416 14.3958 12.8629 14.3451C12.9842 14.2944 13.0943 14.2202 13.1867 14.1267L14.1267 13.1867C14.3139 12.9992 14.4191 12.745 14.4191 12.48C14.4191 12.215 14.3139 11.9608 14.1267 11.7733L13.2533 10.8933C13.4658 10.5038 13.6357 10.0926 13.76 9.66667H15C15.2652 9.66667 15.5196 9.56131 15.7071 9.37377C15.8946 9.18624 16 8.93188 16 8.66667V7.33333C16 7.06812 15.8946 6.81376 15.7071 6.62623C15.5196 6.43869 15.2652 6.33333 15 6.33333ZM8 11.3333C7.34073 11.3333 6.69626 11.1378 6.1481 10.7716C5.59994 10.4053 5.17269 9.8847 4.9204 9.27561C4.66811 8.66652 4.6021 7.9963 4.73072 7.3497C4.85933 6.7031 5.1768 6.10915 5.64298 5.64298C6.10915 5.1768 6.7031 4.85933 7.3497 4.73072C7.9963 4.6021 8.66652 4.66811 9.27561 4.9204C9.8847 5.17269 10.4053 5.59994 10.7716 6.1481C11.1378 6.69626 11.3333 7.34073 11.3333 8C11.3333 8.88406 10.9821 9.7319 10.357 10.357C9.7319 10.9821 8.88406 11.3333 8 11.3333Z" fill="white"/>
</svg>
