<svg width="32" height="32" viewBox="0 0 32 32" fill="none" xmlns="http://www.w3.org/2000/svg">
<path d="M28.32 4.8H21.6001V3.12C21.6001 2.3774 21.305 1.6652 20.7799 1.14007C20.2548 0.615 19.5427 0.32 18.8 0.32H13.2C12.4573 0.32 11.7452 0.615 11.2201 1.14013C10.695 1.6652 10.4001 2.3774 10.4001 3.12V4.8H3.68C3.38293 4.8 3.09806 4.918 2.88806 5.128C2.678 5.33807 2.56 5.623 2.56 5.92C2.56 6.21707 2.678 6.50187 2.88806 6.712C3.09806 6.922 3.38293 7.04 3.68 7.04H4.87L6.2 28.3844C6.2994 30.2639 7.74 31.68 9.56 31.68H22.44C24.2691 31.68 25.681 30.2954 25.8 28.39L27.13 7.04H28.32C28.617 7.04 28.9019 6.922 29.112 6.712C29.322 6.50187 29.44 6.21707 29.44 5.92C29.44 5.623 29.322 5.33813 29.112 5.128C28.9019 4.918 28.617 4.8 28.32 4.8ZM11.5599 27.2H11.52C11.2297 27.2003 10.9508 27.0877 10.7418 26.8862C10.5329 26.6847 10.4103 26.41 10.4 26.1199L9.84 10.4399C9.8294 10.1429 9.93733 9.8538 10.1398 9.6362C10.3424 9.41873 10.6231 9.2906 10.9201 9.28C11.2171 9.26947 11.5063 9.37727 11.7237 9.57987C11.9412 9.78247 12.0695 10.0631 12.08 10.3601L12.64 26.0401C12.6453 26.1872 12.6216 26.3339 12.5703 26.4719C12.5188 26.6097 12.4407 26.7363 12.3404 26.844C12.2401 26.9517 12.1195 27.0386 11.9856 27.0997C11.8517 27.1607 11.707 27.1949 11.5599 27.2ZM17.12 26.08C17.12 26.377 17.002 26.6619 16.7919 26.872C16.5819 27.0821 16.297 27.2 16.0001 27.2C15.703 27.2 15.4181 27.0821 15.2081 26.872C14.9981 26.6619 14.88 26.377 14.88 26.08V10.4C14.88 10.103 14.998 9.81813 15.2081 9.608C15.4181 9.398 15.703 9.28 16.0001 9.28C16.297 9.28 16.5819 9.398 16.7919 9.608C17.002 9.81813 17.12 10.103 17.12 10.4V26.08ZM19.36 4.8H12.64V3.12C12.6392 3.0462 12.6531 2.973 12.6809 2.90473C12.7087 2.8364 12.75 2.77433 12.8021 2.72213C12.8543 2.67 12.9163 2.62873 12.9847 2.60093C13.053 2.57307 13.1262 2.55913 13.2 2.56H18.8C18.8738 2.55913 18.947 2.57307 19.0153 2.60093C19.0837 2.62873 19.1457 2.67 19.1979 2.72213C19.25 2.77433 19.2913 2.8364 19.3191 2.90473C19.3469 2.97307 19.3608 3.0462 19.36 3.12V4.8ZM21.6001 26.1199C21.5897 26.41 21.4671 26.6847 21.2582 26.8862C21.0492 27.0877 20.7703 27.2003 20.48 27.2H20.4394C20.2923 27.1948 20.1477 27.1606 20.0139 27.0995C19.8801 27.0383 19.7596 26.9515 19.6594 26.8437C19.5591 26.736 19.4811 26.6095 19.4297 26.4718C19.3784 26.3339 19.3547 26.1872 19.36 26.0401L19.92 10.3601C19.9253 10.213 19.9595 10.0684 20.0205 9.93453C20.0817 9.80067 20.1686 9.68013 20.2763 9.57987C20.384 9.47947 20.5104 9.40147 20.6483 9.35C20.7861 9.2986 20.9328 9.27473 21.0799 9.28C21.227 9.28527 21.3716 9.3194 21.5055 9.38053C21.6393 9.44167 21.7599 9.52853 21.8602 9.6362C21.9605 9.74393 22.0385 9.8704 22.09 10.0083C22.1415 10.1462 22.1653 10.2929 22.16 10.4399L21.6001 26.1199Z" fill="#FF2B2B"/>
</svg>
