<svg width="32" height="32" viewBox="0 0 32 32" fill="none" xmlns="http://www.w3.org/2000/svg">
<g clip-path="url(#clip0_1_999)">
<path d="M23.7354 6.44733L3.22149 27.0119L1.97842 30.0211L4.98769 28.778L25.5521 8.26413L23.7354 6.44733Z" stroke="white" stroke-width="2.75" stroke-linecap="round" stroke-linejoin="round"/>
<path d="M27.8411 2.34341L26.9525 3.23128L28.7689 5.04754L29.6574 4.15901C29.8906 3.92568 30.0216 3.60934 30.0216 3.27948C30.0216 2.94961 29.8906 2.63328 29.6574 2.39994L29.6009 2.34341C29.4854 2.22788 29.3482 2.13621 29.1972 2.07368C29.0463 2.01114 28.8844 1.97894 28.721 1.97894C28.5576 1.97894 28.3958 2.01114 28.2448 2.07368C28.0938 2.13621 27.9567 2.22788 27.8411 2.34341Z" stroke="white" stroke-width="2.75" stroke-linecap="round" stroke-linejoin="round"/>
</g>
<defs>
<clipPath id="clip0_1_999">
<rect width="32" height="32" fill="white"/>
</clipPath>
</defs>
</svg>
