<svg width="77" height="69" viewBox="0 0 77 69" fill="none" xmlns="http://www.w3.org/2000/svg">
<path d="M28.5645 22.3548C28.5645 24.3311 27.8448 26.2265 26.5638 27.6239C25.2828 29.0214 23.5454 29.8065 21.7338 29.8065C19.9222 29.8065 18.1848 29.0214 16.9038 27.6239C15.6229 26.2265 14.9032 24.3311 14.9032 22.3548C14.9032 20.3785 15.6229 18.4832 16.9038 17.0858C18.1848 15.6883 19.9222 14.9032 21.7338 14.9032C23.5454 14.9032 25.2828 15.6883 26.5638 17.0858C27.8448 18.4832 28.5645 20.3785 28.5645 22.3548Z" fill="white"/>
<path d="M9.625 0C7.07229 0 4.62414 1.02808 2.8191 2.85807C1.01406 4.68806 0 7.17006 0 9.75806V58.5484C0 61.1364 1.01406 63.6184 2.8191 65.4484C4.62414 67.2784 7.07229 68.3064 9.625 68.3064H67.375C69.9277 68.3064 72.3759 67.2784 74.1809 65.4484C75.9859 63.6184 77 61.1364 77 58.5484V9.75806C77 7.17006 75.9859 4.68806 74.1809 2.85807C72.3759 1.02808 69.9277 0 67.375 0H9.625ZM67.375 4.87903C68.6514 4.87903 69.8754 5.39307 70.778 6.30807C71.6805 7.22306 72.1875 8.46406 72.1875 9.75806V41.4718L54.0107 31.9723C53.5594 31.7431 53.0484 31.6636 52.5501 31.745C52.0518 31.8265 51.5913 32.0647 51.2339 32.426L33.3795 50.5273L20.5783 41.8816C20.1161 41.5696 19.5617 41.4293 19.0091 41.4845C18.4565 41.5396 17.9397 41.7868 17.5464 42.1841L4.8125 53.6694V9.75806C4.8125 8.46406 5.31953 7.22306 6.22205 6.30807C7.12457 5.39307 8.34865 4.87903 9.625 4.87903H67.375Z" fill="white"/>
</svg>
