<svg width="53" height="53" viewBox="0 0 53 53" fill="none" xmlns="http://www.w3.org/2000/svg">
<path d="M48.0625 51.875H48.0621H48.0617H48.0613H4.93868H4.93834H4.93794H4.9375L4.93319 51.8749L4.90573 51.8742C4.88004 51.8734 4.84005 51.8716 4.78782 51.8678C4.68319 51.8604 4.53046 51.8452 4.34587 51.8144C3.97432 51.7525 3.48656 51.6296 3.00486 51.3887C2.52511 51.1488 2.06057 50.7969 1.71485 50.2783C1.37122 49.7629 1.125 49.0531 1.125 48.0625C1.125 46.0346 2.1534 41.8506 5.83012 38.1739C9.49218 34.5118 15.8242 31.3125 26.5 31.3125C37.1758 31.3125 43.5078 34.5118 47.1699 38.1739C50.8466 41.8506 51.875 46.0346 51.875 48.0625C51.875 49.0531 51.6288 49.7629 51.2851 50.2783C50.9394 50.7969 50.4749 51.1488 49.9951 51.3887C49.5134 51.6296 49.0257 51.7525 48.6541 51.8144C48.4695 51.8452 48.3168 51.8604 48.2122 51.8678C48.16 51.8716 48.12 51.8734 48.0943 51.8742L48.0668 51.8749L48.0625 51.875ZM35.2946 22.3571C32.9622 24.6896 29.7986 26 26.5 26C23.2014 26 20.0378 24.6896 17.7054 22.3571C15.3729 20.0247 14.0625 16.8611 14.0625 13.5625C14.0625 10.2639 15.3729 7.10034 17.7054 4.76786C20.0378 2.43538 23.2014 1.125 26.5 1.125C29.7986 1.125 32.9622 2.43538 35.2946 4.76786C37.6271 7.10034 38.9375 10.2639 38.9375 13.5625C38.9375 16.8611 37.6271 20.0247 35.2946 22.3571Z" fill="white" stroke="white"/>
</svg>
