<svg width="21" height="21" viewBox="0 0 21 21" fill="none" xmlns="http://www.w3.org/2000/svg">
<path d="M10.3645 1.91473C8.71551 1.91473 7.10352 2.40373 5.73241 3.31988C4.36129 4.23602 3.29264 5.53818 2.66158 7.06168C2.03053 8.58518 1.86542 10.2616 2.18713 11.8789C2.50883 13.4963 3.30291 14.9819 4.46895 16.1479C5.63499 17.314 7.12061 18.1081 8.73795 18.4298C10.3553 18.7515 12.0317 18.5864 13.5552 17.9553C15.0787 17.3242 16.3809 16.2556 17.297 14.8845C18.2132 13.5134 18.7022 11.9014 18.7022 10.2524C18.6998 8.04179 17.8206 5.92244 16.2575 4.35934C14.6944 2.79624 12.5751 1.91707 10.3645 1.91473ZM10.3645 17.3073C8.96921 17.3073 7.60521 16.8935 6.44504 16.1183C5.28487 15.3431 4.38062 14.2413 3.84665 12.9521C3.31268 11.663 3.17297 10.2445 3.44519 8.87601C3.7174 7.50749 4.38932 6.25042 5.37596 5.26378C6.36261 4.27713 7.61968 3.60522 8.98819 3.333C10.3567 3.06079 11.7752 3.2005 13.0643 3.73447C14.3534 4.26844 15.4553 5.17268 16.2305 6.33285C17.0057 7.49303 17.4194 8.85702 17.4194 10.2524C17.4173 12.1228 16.6734 13.916 15.3508 15.2386C14.0282 16.5612 12.235 17.3051 10.3645 17.3073ZM10.3645 5.76286C9.7304 5.763 9.11053 5.95115 8.58331 6.30352C8.05608 6.6559 7.64517 7.15668 7.40251 7.74255C7.15985 8.32843 7.09635 8.9731 7.22003 9.59506C7.3437 10.217 7.64901 10.7884 8.09735 11.2368L7.22671 13.4239C7.1686 13.5697 7.1471 13.7276 7.16407 13.8838C7.18104 14.0399 7.23596 14.1895 7.32405 14.3195C7.41215 14.4495 7.53072 14.5559 7.66943 14.6296C7.80814 14.7032 7.96276 14.7417 8.11979 14.7418H12.6093C12.7663 14.7417 12.9209 14.7032 13.0596 14.6296C13.1984 14.5559 13.3169 14.4495 13.405 14.3195C13.4931 14.1895 13.548 14.0399 13.565 13.8838C13.582 13.7276 13.5605 13.5697 13.5024 13.4239L12.6317 11.2368C13.0801 10.7884 13.3854 10.217 13.509 9.59506C13.6327 8.9731 13.5692 8.32843 13.3266 7.74255C13.0839 7.15668 12.673 6.6559 12.1458 6.30352C11.6185 5.95115 10.9987 5.763 10.3645 5.76286ZM11.2713 11.2865L12.1363 13.4591H8.59279L9.45782 11.2865C9.51064 11.1539 9.51772 11.0075 9.47793 10.8704C9.43814 10.7333 9.35377 10.6135 9.23816 10.5297C8.90835 10.2916 8.66251 9.95503 8.53595 9.56842C8.40939 9.1818 8.40863 8.76502 8.53377 8.37794C8.65892 7.99087 8.90353 7.65341 9.23246 7.41406C9.5614 7.17471 9.95773 7.04577 10.3645 7.04577C10.7713 7.04577 11.1677 7.17471 11.4966 7.41406C11.8255 7.65341 12.0702 7.99087 12.1953 8.37794C12.3204 8.76502 12.3197 9.1818 12.1931 9.56842C12.0666 9.95503 11.8207 10.2916 11.4909 10.5297C11.3753 10.6135 11.2909 10.7333 11.2511 10.8704C11.2114 11.0075 11.2184 11.1539 11.2713 11.2865Z" fill="white"/>
</svg>
