<svg width="21" height="22" viewBox="0 0 21 22" fill="none" xmlns="http://www.w3.org/2000/svg">
<path d="M10.3645 2.80304C8.71551 2.80304 7.10352 3.29203 5.73241 4.20818C4.36129 5.12433 3.29264 6.42649 2.66158 7.94999C2.03053 9.47349 1.86542 11.1499 2.18713 12.7672C2.50883 14.3846 3.30291 15.8702 4.46895 17.0362C5.63499 18.2023 7.12061 18.9964 8.73795 19.3181C10.3553 19.6398 12.0317 19.4747 13.5552 18.8436C15.0787 18.2126 16.3809 17.1439 17.297 15.7728C18.2132 14.4017 18.7022 12.7897 18.7022 11.1407C18.6998 8.9301 17.8206 6.81075 16.2575 5.24765C14.6944 3.68455 12.5751 2.80537 10.3645 2.80304ZM10.3645 18.1956C8.96921 18.1956 7.60521 17.7818 6.44504 17.0066C5.28487 16.2314 4.38062 15.1296 3.84665 13.8405C3.31268 12.5513 3.17297 11.1328 3.44519 9.76431C3.7174 8.39579 4.38932 7.13873 5.37596 6.15208C6.36261 5.16544 7.61968 4.49352 8.98819 4.22131C10.3567 3.94909 11.7752 4.0888 13.0643 4.62277C14.3534 5.15674 15.4553 6.06099 16.2305 7.22116C17.0057 8.38133 17.4194 9.74533 17.4194 11.1407C17.4173 13.0111 16.6734 14.8043 15.3508 16.1269C14.0282 17.4495 12.235 18.1934 10.3645 18.1956ZM11.6472 14.9888C11.6472 15.1589 11.5797 15.322 11.4594 15.4423C11.3391 15.5626 11.176 15.6301 11.0059 15.6301C10.6657 15.6301 10.3394 15.495 10.0989 15.2544C9.85832 15.0139 9.72318 14.6876 9.72318 14.3474V11.1407C9.55308 11.1407 9.38995 11.0731 9.26968 10.9528C9.1494 10.8325 9.08183 10.6694 9.08183 10.4993C9.08183 10.3292 9.1494 10.1661 9.26968 10.0458C9.38995 9.92552 9.55308 9.85795 9.72318 9.85795C10.0634 9.85795 10.3896 9.99309 10.6302 10.2336C10.8707 10.4742 11.0059 10.8005 11.0059 11.1407V14.3474C11.176 14.3474 11.3391 14.415 11.4594 14.5353C11.5797 14.6556 11.6472 14.8187 11.6472 14.9888ZM9.08183 7.6132C9.08183 7.42293 9.13825 7.23693 9.24396 7.07873C9.34967 6.92052 9.49992 6.79721 9.67571 6.7244C9.85149 6.65159 10.0449 6.63254 10.2315 6.66966C10.4182 6.70678 10.5896 6.7984 10.7241 6.93294C10.8587 7.06749 10.9503 7.2389 10.9874 7.42552C11.0245 7.61214 11.0055 7.80557 10.9327 7.98136C10.8598 8.15715 10.7365 8.30739 10.5783 8.4131C10.4201 8.51881 10.2341 8.57524 10.0439 8.57524C9.78871 8.57524 9.54402 8.47388 9.3636 8.29346C9.18318 8.11305 9.08183 7.86835 9.08183 7.6132Z" fill="white"/>
</svg>
