<svg width="18" height="19" viewBox="0 0 18 19" fill="none" xmlns="http://www.w3.org/2000/svg">
<g clip-path="url(#clip0_1_216)">
<path d="M13.98 1.86179C12.6048 1.86179 11.49 2.9766 11.49 4.35179C11.4911 4.52681 11.5107 4.70123 11.5484 4.87216L5.89479 7.69894C5.42303 7.1558 4.73941 6.84325 4.02 6.84179C2.64481 6.84179 1.53 7.9566 1.53 9.33179C1.53 10.707 2.64481 11.8218 4.02 11.8218C4.73964 11.821 5.42374 11.5089 5.89601 10.9658L11.5459 13.7914C11.5091 13.9624 11.4903 14.1368 11.49 14.3118C11.49 15.687 12.6048 16.8018 13.98 16.8018C15.3552 16.8018 16.47 15.687 16.47 14.3118C16.47 12.9366 15.3552 11.8218 13.98 11.8218C13.2604 11.8226 12.5763 12.1347 12.104 12.6777L6.45407 9.85216C6.49094 9.68115 6.50969 9.50673 6.51 9.33179C6.5088 9.15717 6.48924 8.98316 6.45164 8.81263L12.1052 5.98585C12.5772 6.52853 13.2608 6.84062 13.98 6.84179C15.3552 6.84179 16.47 5.72697 16.47 4.35179C16.47 2.9766 15.3552 1.86179 13.98 1.86179Z" fill="white"/>
</g>
<defs>
<clipPath id="clip0_1_216">
<rect width="18" height="18" fill="white" transform="translate(0 0.331787)"/>
</clipPath>
</defs>
</svg>
