<svg width="390" height="844" viewBox="0 0 390 844" fill="none" xmlns="http://www.w3.org/2000/svg">
<path d="M196.619 -535H193.378H158.369L184.516 422.417H193.378H196.619H205.498L231.645 -535H196.619Z" fill="#00AEFE"/>
<path d="M395.651 -513.748L392.461 -514.423L358.228 -521.698L184.736 420.239L193.412 422.079L196.586 422.754L205.262 424.594L429.901 -506.473L395.651 -513.748Z" fill="#00AEFE"/>
<path d="M585.906 -451.579L582.935 -452.896L550.964 -467.125L185.411 418.163L193.53 421.758L196.484 423.075L204.587 426.687L617.893 -437.332L585.906 -451.579Z" fill="#00AEFE"/>
<path d="M759.078 -351.194L792.5 -394.997L748.511 -407.218L186.508 416.255L193.682 421.471L196.315 423.379L203.489 428.578L796.602 -342.635L759.078 -351.194Z" fill="#00AEFE"/>
<path d="M646.623 -21.5947L187.994 414.618L193.919 421.218L196.096 423.632L202.021 430.215L931.018 -191.002L907.588 -217.014L905.411 -219.428L881.981 -245.44L646.623 -21.5947Z" fill="#00AEFE"/>
<path d="M1024.95 -54.8821L1023.33 -57.7011L1005.83 -88.0176L189.766 413.335L194.205 421.016L195.809 423.818L200.265 431.498L1042.46 -24.5656L1024.95 -54.8821Z" fill="#00AEFE"/>
<path d="M1106.06 128.097L1105.07 125.008L1094.25 91.7206L191.758 412.424L194.492 420.881L195.505 423.97L198.257 432.41L1116.88 161.401L1106.06 128.097Z" fill="#00AEFE"/>
<path d="M1147.35 323.956L1147 320.715L1143.35 285.908L193.919 411.985L194.83 420.813L195.168 424.037L196.096 432.866L1151.01 358.762L1147.35 323.956Z" fill="#00AEFE"/>
<path d="M1147.01 524.102L1147.35 520.878L1151 486.054L196.096 411.985L195.168 420.813L194.83 424.037L193.919 432.865L1143.35 558.925L1147.01 524.102Z" fill="#00AEFE"/>
<path d="M1105.07 719.809L1106.06 716.736L1116.88 683.432L198.257 412.424L195.505 420.881L194.492 423.953L191.758 432.41L1094.25 753.113L1105.07 719.809Z" fill="#00AEFE"/>
<path d="M1023.33 902.551L1024.95 899.716L1042.46 869.399L200.265 413.335L195.809 421.016L194.189 423.818L189.766 431.498L1005.85 932.851L1023.33 902.551Z" fill="#00AEFE"/>
<path d="M905.411 1064.26L907.588 1061.85L931.018 1035.84L202.021 414.618L196.096 421.218L193.919 423.615L187.994 430.215L881.998 1090.27L905.411 1064.26Z" fill="#00AEFE"/>
<path d="M756.445 1197.93L759.078 1196.03L787.385 1175.45L203.489 416.255L196.315 421.471L193.682 423.379L186.508 428.578L728.12 1218.53L756.445 1197.93Z" fill="#00AEFE"/>
<path d="M582.935 1297.71L585.906 1296.41L617.893 1282.17L204.587 418.163L196.484 421.758L193.513 423.075L185.411 426.687L550.964 1311.96L582.935 1297.71Z" fill="#00AEFE"/>
<path d="M392.478 1359.26L395.651 1358.56L429.901 1351.29L205.262 420.239L196.586 422.079L193.412 422.754L184.736 424.594L358.228 1366.55L392.478 1359.26Z" fill="#00AEFE"/>
<path d="M193.378 1379.83H196.619H231.645L205.498 422.417H196.619H193.378H184.516L158.369 1379.83H193.378Z" fill="#00AEFE"/>
<path d="M-5.63675 1358.56L-2.4633 1359.26L31.7862 1366.53L205.262 424.594L196.586 422.754L193.412 422.079L184.736 420.239L-39.8862 1351.29L-5.63675 1358.56Z" fill="#00AEFE"/>
<path d="M-195.891 1296.41L-192.937 1297.71L-160.933 1311.96L204.587 426.687L196.484 423.075L193.53 421.758L185.411 418.163L-227.879 1282.17L-195.891 1296.41Z" fill="#00AEFE"/>
<path d="M-369.063 1196.03L-366.43 1197.93L-338.105 1218.51L203.489 428.578L196.315 423.379L193.682 421.471L186.508 416.255L-397.388 1175.45L-369.063 1196.03Z" fill="#00AEFE"/>
<path d="M-517.59 1061.85L-515.413 1064.26L-491.984 1090.27L202.021 430.215L196.096 423.632L193.918 421.218L187.994 414.618L-541.02 1035.84L-517.59 1061.85Z" fill="#00AEFE"/>
<path d="M-634.957 899.716L-633.337 902.551L-615.832 932.851L200.265 431.498L195.809 423.818L194.206 421.016L189.766 413.335L-652.462 869.399L-634.957 899.716Z" fill="#00AEFE"/>
<path d="M-716.048 716.736L-715.053 719.825L-704.232 753.113L198.257 432.41L195.505 423.97L194.509 420.881L191.758 412.424L-726.869 683.432L-716.048 716.736Z" fill="#00AEFE"/>
<path d="M-757.337 520.878L-756.999 524.102L-753.336 558.925L196.096 432.865L195.168 424.037L194.83 420.796L193.919 411.985L-761 486.054L-757.337 520.878Z" fill="#00AEFE"/>
<path d="M-756.999 320.732L-757.337 323.956L-761 358.779L193.919 432.866L194.83 424.037L195.185 420.796L196.096 411.985L-753.336 285.908L-756.999 320.732Z" fill="#00AEFE"/>
<path d="M-715.053 125.025L-716.065 128.097L-726.869 161.401L191.758 432.41L194.492 423.97L195.505 420.881L198.257 412.424L-704.232 91.7206L-715.053 125.025Z" fill="#00AEFE"/>
<path d="M-633.337 -57.7011L-634.957 -54.8821L-652.462 -24.5656L189.766 431.498L194.189 423.818L195.826 421.016L200.265 413.335L-615.832 -88.0176L-633.337 -57.7011Z" fill="#00AEFE"/>
<path d="M-515.413 -219.428L-517.59 -217.014L-541.02 -190.986L187.994 430.215L193.918 423.632L196.096 421.218L202.021 414.618L-491.984 -245.44L-515.413 -219.428Z" fill="#00AEFE"/>
<path d="M-366.43 -353.101L-369.063 -351.194L-415.112 -353.27L186.508 428.578L193.682 423.379L196.315 421.471L203.49 416.255L-338.105 -373.678L-366.43 -353.101Z" fill="#00AEFE"/>
<path d="M-192.937 -452.879L-195.891 -451.562L-227.879 -437.332L185.411 426.687L193.513 423.075L196.484 421.758L204.587 418.163L-160.95 -467.125L-192.937 -452.879Z" fill="#00AEFE"/>
<path d="M-2.4633 -514.406L-5.63675 -513.731L-39.8862 -506.456L184.736 424.594L193.412 422.754L196.603 422.079L205.262 420.239L31.7862 -521.698L-2.4633 -514.406Z" fill="#00AEFE"/>
<path d="M196.619 -535H193.378H158.369L184.516 422.417H193.378H196.619H205.498L231.645 -535H196.619Z" fill="#00AEFE"/>
</svg>
